<mxfile host="app.diagrams.net" modified="2023-04-05T05:51:26.772Z" agent="Mozilla/5.0 (Macintosh; Intel Mac OS X 10_15_7) AppleWebKit/537.36 (KHTML, like Gecko) Chrome/111.0.0.0 Safari/537.36" version="21.1.4" etag="IjMemLj6lu6hOG1cHSzK" type="github">
  <diagram name="페이지-1" id="D7AVDsJNIgMkdTX27mQH">
    <mxGraphModel>
      <root>
        <mxCell id="0" />
        <mxCell id="1" parent="0" />
      </root>
    </mxGraphModel>
  </diagram>
</mxfile>
